<?xml version="1.0" encoding="utf-8"?>
<!-- Generator: hand-written to mimic an Illustrator export (CSS classes, Layer_1 wrapper, enable-background) -->
<svg version="1.1" id="Layer_1" xmlns="http://www.w3.org/2000/svg" xmlns:xlink="http://www.w3.org/1999/xlink" x="0px" y="0px"
	 viewBox="0 0 64 64" style="enable-background:new 0 0 64 64;" xml:space="preserve">
<style type="text/css">
	.st0{fill:#1F2937;}
	.st1{fill:#F97316;}
	.st2{fill:none;stroke:#FDE68A;stroke-width:3;stroke-linecap:round;}
	#flame-core{fill:#FEF3C7;}
</style>
<g id="Badge" data-name="Badge">
	<rect x="4" y="4" class="st0" width="56" height="56" rx="14"/>
</g>
<g id="Flame">
	<path class="st1" d="M32,12c6,8,14,14,14,24c0,8-6,14-14,14s-14-6-14-14c0-6,4-10,6-14c1,4,3,6,5,6C29,22,30,17,32,12z"/>
	<path id="flame-core" d="M32,32c3,4,6,6,6,10c0,4-3,6-6,6s-6-2-6-6C26,38,29,36,32,32z"/>
	<path class="st2" d="M14,54h36"/>
</g>
</svg>
