<?xml version="1.0" encoding="UTF-8"?><svg id="a" xmlns="http://www.w3.org/2000/svg" width="500" height="500" xmlns:xlink="http://www.w3.org/1999/xlink" viewBox="0 0 500 500"><defs><style>.g{opacity:.33;}.h{fill:#fff;}.i{filter:url(#e);}.j{filter:url(#c);}.k{fill:url(#b);}.l{fill:none;stroke:#8a8a8a;stroke-miterlimit:10;stroke-width:10px;}</style><linearGradient id="b" x1="431.829" y1="68.106" x2="68.057" y2="431.877" gradientUnits="userSpaceOnUse"><stop offset="0" stop-color="#0b856e"/><stop offset="1" stop-color="#32b39b"/></linearGradient><filter id="c" x="-27" y="492.84" width="554.16" height="554.16" filterUnits="userSpaceOnUse"><feOffset dx="0" dy="0"/><feGaussianBlur result="d" stdDeviation="23"/><feFlood flood-color="#000" flood-opacity=".4"/><feComposite in2="d" operator="in"/><feComposite in="SourceGraphic"/></filter><filter id="e" x="55.48" y="58.6" width="387.6" height="384.24" filterUnits="userSpaceOnUse"><feOffset dx="0" dy="0"/><feGaussianBlur result="f" stdDeviation="23"/><feFlood flood-color="#000" flood-opacity=".3"/><feComposite in2="f" operator="in"/><feComposite in="SourceGraphic"/></filter></defs><path class="k" d="M172.43,20.853h0l-27.812,5.474-18.06,5.536-12.424,4.976-10.512,5.116-12.366,7.308-10.57,7.609-11.468,10.079-8.105,8.61-6.527,8.105-7.775,11.468-4.381,7.615-7.616,16.149-5.813,16.294-1.696,5.813-2.522,10.031-2.578,12.905-1.4,8.928-1.655,14.008-1.558,22.936-.551,22.936-.042,28.058.219,17.813.99,22.936.515,6.846,1.722,16.089,1.915,12.453,2.078,10.483,4.448,17.009,2.95,8.904,2.977,7.762,5.555,12.197,6.203,11.178,11.178,15.935,8.8,9.958,14.136,12.758,11.053,7.924,11.883,6.993,8.184,4.06,14.752,6.032,9.026,2.994,22.272,5.549,14.575,2.467,26.16,2.67,19.712.903,45.872.281,25.531-.554,20.341-1.292,22.936-2.822,8.156-1.446,14.78-3.34,8.912-2.528,14.024-4.901,9.382-4.011,13.554-7.047,11.468-7.37,11.468-9.013,11.468-11.171,11.468-14.2,7.805-12.203,4.206-7.805,5.255-11.468,5.671-15.602,5.005-18.802,1.306-6.311,2.687-16.625,1.406-12.532,1.468-22.275.522-21.606.008-35.33-.551-22.936-1.558-22.936-1.703-14.346-2.484-14.696-3.967-16.83-2.139-7.234-5.712-15.701-4.77-10.481-9.041-15.868-3.414-5.026-11.74-14.496-11.196-10.874-20.227-14.77-12.065-6.647-19.072-8.088-17.938-5.492-22.442-4.658-5.491-.833-17.445-1.989-22.936-1.394-22.936-.453-45.872.281-22.936,1.13-7.305.612-15.631,1.831"/><g class="j"><path class="l" d="M263.934,572.002l21.767.43,21.299,1.294,15.882,1.811,3.915.594,19.929,4.137,14.649,4.485,15.744,6.677,8.539,4.704,16.445,12.009,7.935,7.707,9.499,11.728,1.812,2.668,7.57,13.287,3.544,7.787,4.877,13.406,1.556,5.262,3.485,14.787,2.153,12.737,1.497,12.615,1.446,21.294.522,21.741-.008,34.485-.494,20.464-1.367,20.742-1.222,10.889-2.429,15.033-.951,4.594-4.355,16.359-4.656,12.812-4.192,9.149-3.049,5.657-6.058,9.472-8.941,11.071-8.64,8.415-8.701,6.838-8.719,5.603-10.954,5.695-7.078,3.026-11.915,4.163-6.992,1.983-13.058,2.951-6.437,1.141-20.989,2.583-18.582,1.181-24.314.528-44.691-.273-18.039-.826-24.037-2.453-12.118-2.051-19.678-4.903-6.634-2.2-12.479-5.102-5.928-2.941-9.446-5.559-8.174-5.86-11.209-10.117-6.191-7.006-8.995-12.823-4.637-8.355-4.536-9.959-2.303-6.006-2.342-7.069-3.898-14.906-1.727-8.711-1.678-10.912-1.577-14.737-.432-5.743-.942-21.837-.21-17.025.041-27.433.523-21.77,1.447-21.304,1.475-12.483,1.184-7.552,2.267-11.349,2.151-8.556,1.224-4.196,4.89-13.707,6.275-13.307,3.027-5.261,6.243-9.207,4.778-5.933,6.042-6.419,8.948-7.865,7.908-5.693,9.788-5.785,8.105-3.945,9.897-3.964,14.936-4.578,24.706-4.863,13.701-1.605,6.136-.514,21.58-1.063,44.664-.273Z"/></g><g class="i"><path class="g" d="M244.214,297.776h-49.954l26.414-27.839c7.234-7.929,12.34-14.872,15.318-20.819,2.978-5.956,4.463-11.817,4.463-17.558,0-10.478-3.313-18.588-9.929-24.329-6.625-5.75-15.919-8.616-27.882-8.616-7.818,0-14.82,1.665-20.982,4.986-6.17,3.321-10.95,7.912-14.314,13.765-3.39,5.844-5.072,12.306-5.072,19.386h23.136c0-5.853,1.502-10.573,4.505-14.168,3.004-3.587,7.114-5.381,12.323-5.381,4.84,0,8.565,1.476,11.173,4.428,2.6,2.952,3.913,7.003,3.913,12.169,0,3.776-1.244,7.758-3.716,11.954-2.471,4.214-6.29,9.131-11.448,14.769l-37.579,40.042v15.799h79.63v-18.588ZM321.887,207.351c-6.625-5.827-15.576-8.736-26.852-8.736s-20.287,2.935-26.878,8.813c-6.599,5.87-9.895,13.765-9.895,23.651,0,5.647,1.39,10.641,4.196,15.001,2.789,4.359,6.651,7.844,11.603,10.453-5.587,2.66-10.032,6.376-13.327,11.173-3.295,4.788-4.943,10.401-4.943,16.829,0,10.264,3.536,18.399,10.616,24.415,7.071,6.016,16.64,9.011,28.714,9.011s21.617-2.986,28.637-8.976c7.02-5.982,10.538-14.134,10.538-24.449,0-6.428-1.656-12.032-4.943-16.794-3.304-4.754-7.775-8.487-13.413-11.208,4.952-2.609,8.83-6.093,11.645-10.453,2.823-4.359,4.239-9.354,4.239-15.001,0-9.998-3.312-17.91-9.938-23.728M306.886,294.987c-2.849,2.918-6.771,4.385-11.766,4.385-5.106,0-9.097-1.51-11.963-4.548-2.875-3.029-4.308-7.02-4.308-11.963,0-5.106,1.459-9.165,4.385-12.169,2.918-3.004,6.831-4.505,11.731-4.505,4.943,0,8.882,1.519,11.8,4.54,2.926,3.038,4.385,7.08,4.385,12.135,0,5.157-1.425,9.199-4.265,12.126M305.213,243.368c-2.36,2.823-5.733,4.231-10.092,4.231s-7.74-1.407-10.126-4.231c-2.403-2.815-3.596-6.548-3.596-11.173,0-4.677,1.193-8.342,3.596-11.002,2.386-2.669,5.741-3.99,10.041-3.99,4.368,0,7.74,1.364,10.135,4.111,2.394,2.738,3.587,6.368,3.587,10.882,0,4.626-1.184,8.359-3.544,11.173"/><path class="h" d="M295.121,247.599c4.359,0,7.732-1.407,10.092-4.231,2.36-2.815,3.544-6.548,3.544-11.173,0-4.514-1.193-8.144-3.587-10.882-2.394-2.746-5.767-4.111-10.135-4.111-4.299,0-7.655,1.321-10.041,3.99-2.403,2.66-3.596,6.325-3.596,11.002,0,4.626,1.193,8.359,3.596,11.173,2.386,2.823,5.758,4.231,10.126,4.231Z"/><path class="h" d="M294.966,266.187c-4.9,0-8.813,1.502-11.731,4.505-2.926,3.004-4.385,7.063-4.385,12.169,0,4.943,1.433,8.933,4.308,11.963,2.866,3.038,6.857,4.548,11.963,4.548,4.995,0,8.916-1.467,11.766-4.385,2.84-2.926,4.265-6.968,4.265-12.126,0-5.055-1.459-9.097-4.385-12.135-2.918-3.021-6.857-4.54-11.8-4.54Z"/><path class="h" d="M348.591,127.684h-20.356c-.455,15.962-13.508,28.783-29.59,28.783s-29.135-12.821-29.59-28.783h-39.476c-.455,15.962-13.508,28.783-29.581,28.783s-29.135-12.821-29.59-28.783h-20.356c-14.031,0-25.393,11.362-25.393,25.393v195.259c0,14.023,11.362,25.393,25.393,25.393h198.537c14.022,0,25.393-11.371,25.393-25.393v-195.259c0-14.031-11.371-25.393-25.393-25.393ZM244.214,316.364h-79.63v-15.799l37.579-40.042c5.158-5.638,8.976-10.556,11.448-14.769,2.472-4.197,3.716-8.178,3.716-11.954,0-5.166-1.313-9.217-3.913-12.169-2.609-2.952-6.333-4.428-11.173-4.428-5.209,0-9.32,1.793-12.323,5.381-3.004,3.596-4.505,8.316-4.505,14.168h-23.136c0-7.08,1.682-13.542,5.072-19.386,3.364-5.852,8.144-10.444,14.314-13.765,6.162-3.321,13.164-4.986,20.982-4.986,11.963,0,21.257,2.866,27.882,8.616,6.616,5.741,9.929,13.851,9.929,24.329,0,5.741-1.485,11.602-4.463,17.558-2.978,5.947-8.084,12.89-15.318,20.819l-26.414,27.839h49.954v18.588ZM323.758,308.984c-7.02,5.99-16.571,8.976-28.637,8.976s-21.643-2.995-28.714-9.011c-7.08-6.016-10.616-14.151-10.616-24.415,0-6.428,1.648-12.04,4.943-16.829,3.295-4.797,7.741-8.513,13.327-11.173-4.952-2.609-8.813-6.093-11.603-10.453-2.806-4.359-4.196-9.354-4.196-15.001,0-9.886,3.295-17.781,9.895-23.651,6.591-5.878,15.55-8.813,26.878-8.813s20.227,2.909,26.852,8.736c6.625,5.818,9.938,13.731,9.938,23.728,0,5.647-1.416,10.641-4.239,15.001-2.815,4.359-6.694,7.844-11.645,10.453,5.638,2.72,10.109,6.453,13.413,11.208,3.287,4.763,4.943,10.367,4.943,16.794,0,10.315-3.519,18.468-10.538,24.449Z"/></g></svg>