<?xml version="1.0" encoding="UTF-8"?><svg id="a" xmlns="http://www.w3.org/2000/svg" width="500" height="500" xmlns:xlink="http://www.w3.org/1999/xlink" viewBox="0 0 500 500"><defs><style>.e{filter:url(#c);}.f{fill:#fcfbfe;}.g{fill:url(#b);}</style><linearGradient id="b" x1="404.162" y1="454.543" x2="95.873" y2="45.428" gradientUnits="userSpaceOnUse"><stop offset="0" stop-color="#8652ff"/><stop offset="1" stop-color="#4b2bff"/></linearGradient><filter id="c" x="12.12" y="11.88" width="475.92" height="476.16" filterUnits="userSpaceOnUse"><feOffset dx="0" dy="0"/><feGaussianBlur result="d" stdDeviation="23"/><feFlood flood-color="#000" flood-opacity=".3"/><feComposite in2="d" operator="in"/><feComposite in="SourceGraphic"/></filter></defs><path class="g" d="M172.43,20.853h0l-27.812,5.474-18.06,5.536-12.424,4.976-10.512,5.116-12.366,7.308-10.57,7.609-11.468,10.079-8.105,8.61-6.527,8.105-7.775,11.468-4.381,7.615-7.616,16.149-5.813,16.294-1.696,5.813-2.522,10.031-2.578,12.905-1.4,8.928-1.655,14.008-1.558,22.936-.551,22.936-.042,28.058.219,17.813.99,22.936.515,6.846,1.722,16.089,1.915,12.453,2.078,10.483,4.448,17.009,2.95,8.904,2.977,7.762,5.555,12.197,6.203,11.178,11.178,15.935,8.8,9.958,14.136,12.758,11.053,7.924,11.883,6.993,8.184,4.06,14.752,6.032,9.026,2.994,22.272,5.549,14.575,2.467,26.16,2.67,19.712.903,45.872.281,25.531-.554,20.341-1.292,22.936-2.822,8.156-1.446,14.78-3.34,8.912-2.528,14.024-4.901,9.382-4.011,13.554-7.047,11.468-7.37,11.468-9.013,11.468-11.171,11.468-14.2,7.805-12.203,4.206-7.805,5.255-11.468,5.671-15.602,5.005-18.802,1.306-6.311,2.687-16.625,1.406-12.532,1.468-22.275.522-21.606.008-35.33-.551-22.936-1.558-22.936-1.703-14.346-2.484-14.696-3.967-16.83-2.139-7.234-5.712-15.701-4.77-10.481-9.041-15.868-3.414-5.026-11.74-14.496-11.196-10.874-20.227-14.77-12.065-6.647-19.072-8.088-17.938-5.492-22.442-4.658-5.491-.833-17.445-1.989-22.936-1.394-22.936-.453-45.872.281-22.936,1.13-7.305.612-15.631,1.831"/><g class="e"><path class="f" d="M81.198,262.195c-.014-107.849,76.836-183.355,175.026-181.05,82.409,1.935,151.986,66.16,161.119,148.222,5.956,53.518-6.015,101.597-41.776,142.729-42.197,48.534-107.774,60.575-163.642,30.256-2.624-1.424-5.086-2.822-8.395-2.379-37.086,4.968-65.144-11.219-87.496-38.849-25.374-31.365-34.3-68.433-34.837-98.928ZM182.376,379.903c-1.484-2.621-1.815-3.445-2.347-4.11-37.975-47.458-46.036-101.396-30.204-158.345,18.999-68.344,98.127-98.027,155.438-60.206,37.58,24.8,57.157,77.561,46.578,125.479-8.769,39.724-37.783,78.69-86.609,74.996-2.227-.169-4.28.222-5.483,2.243-6.756,11.345-16.094,20.47-25.977,29.011,1.051,1.066,1.396,1.63,1.897,1.88,1.061.528,2.183.96,3.317,1.313,37.091,11.549,72.041,7.423,102.529-17.262,48.613-39.359,64.75-91.776,53.64-151.765-11.257-60.78-47.944-101.603-108.341-116.378-61.305-14.997-113.811,2.88-153.605,52.673-28.145,35.217-35.716,76.295-29.524,120.254,3.833,27.21,13.427,52.135,31.992,72.869,12.166,13.586,26.631,23.68,46.7,27.347ZM163.347,268.832c.474,29.706,7.258,61.158,27.87,88.321,17.826,23.491,28.064,23.226,45.929-.789.536-.72,1.043-1.468,1.639-2.136,2.209-2.474,2.177-4.41-.705-6.592-19.473-14.744-27.949-35.263-30.149-58.827-2.242-24.018-2.756-47.941,9.105-70.101,7.806-14.585,21.645-21.405,38.195-19.435,14.342,1.708,24.356,11.078,28.692,27.047.938,3.453,1.739,6.999,2.066,10.552,2.861,31.064.604,61.535-10.846,90.907-3.335,8.556-2.318,9.784,6.958,8.201,11.983-2.045,21.689-8.133,29.713-17.126,27.256-30.548,29.861-83.017,5.926-119.814-29.236-44.948-93.237-50.255-129.216-10.405-19.57,21.676-25.148,48.3-25.176,80.195ZM268.312,263.264c-.034-10.166.359-20.385-2.823-30.241-2.479-7.678-5.86-14.789-15.295-15.367-9.733-.597-15.169,5.839-17.738,13.767-9.019,27.836-9.175,55.851,1.172,83.441,2.484,6.624,5.988,14.236,14.576,13.923,9.287-.339,11.213-9.015,13.435-15.937,5.161-16.075,6.532-32.774,6.673-49.586Z"/></g></svg>