<?xml version="1.0" encoding="UTF-8"?><svg id="a" xmlns="http://www.w3.org/2000/svg" width="500" height="500" xmlns:xlink="http://www.w3.org/1999/xlink" viewBox="0 0 500 500"><defs><style>.e{fill:#1e4ac2;}.f{filter:url(#c);}.g{fill:#81a3fd;}.h{fill:url(#b);}.i{fill:#fefefe;}.j{fill:#81a4fe;}</style><linearGradient id="b" x1="431.825" y1="431.874" x2="68.06" y2="68.109" gradientUnits="userSpaceOnUse"><stop offset="0" stop-color="#4563c7"/><stop offset="1" stop-color="#2344b0"/></linearGradient><filter id="c" x="38.2" y="70.68" width="423.6" height="358.8" filterUnits="userSpaceOnUse"><feOffset dx="0" dy="0"/><feGaussianBlur result="d" stdDeviation="23"/><feFlood flood-color="#000" flood-opacity=".3"/><feComposite in2="d" operator="in"/><feComposite in="SourceGraphic"/></filter></defs><path class="h" d="M172.43,20.853h0l-27.812,5.474-18.06,5.536-12.424,4.976-10.512,5.116-12.366,7.308-10.57,7.609-11.468,10.079-8.105,8.61-6.527,8.105-7.775,11.468-4.381,7.615-7.616,16.149-5.813,16.294-1.696,5.813-2.522,10.031-2.578,12.905-1.4,8.928-1.655,14.008-1.558,22.936-.551,22.936-.042,28.058.219,17.813.99,22.936.515,6.846,1.722,16.089,1.915,12.453,2.078,10.483,4.448,17.009,2.95,8.904,2.977,7.762,5.555,12.197,6.203,11.178,11.178,15.935,8.8,9.958,14.136,12.758,11.053,7.924,11.883,6.993,8.184,4.06,14.752,6.032,9.026,2.994,22.272,5.549,14.575,2.467,26.16,2.67,19.712.903,45.872.281,25.531-.554,20.341-1.292,22.936-2.822,8.156-1.446,14.78-3.34,8.912-2.528,14.024-4.901,9.382-4.011,13.554-7.047,11.468-7.37,11.468-9.013,11.468-11.171,11.468-14.2,7.805-12.203,4.206-7.805,5.255-11.468,5.671-15.602,5.005-18.802,1.306-6.311,2.687-16.625,1.406-12.532,1.468-22.275.522-21.606.008-35.33-.551-22.936-1.558-22.936-1.703-14.346-2.484-14.696-3.967-16.83-2.139-7.234-5.712-15.701-4.77-10.481-9.041-15.868-3.414-5.026-11.74-14.496-11.196-10.874-20.227-14.77-12.065-6.647-19.072-8.088-17.938-5.492-22.442-4.658-5.491-.833-17.445-1.989-22.936-1.394-22.936-.453-45.872.281-22.936,1.13-7.305.612-15.631,1.831"/><g class="f"><path class="i" d="M250.34,139.733c34.183,0,68.366-.069,102.549.028,19.357.055,34.658,12.307,38.863,30.769.817,3.585.842,7.235.843,10.877.014,45.729.039,91.459-.002,137.188-.023,25.389-16.267,41.671-41.519,41.677-67.759.018-135.517.033-203.276-.011-19.962-.013-35.528-12.22-39.552-31.012-.723-3.378-.809-6.94-.813-10.418-.051-45.882-.07-91.763-.019-137.645.028-25.257,16.383-41.441,41.744-41.451,33.727-.014,67.455-.003,101.182-.003ZM247.276,195.268c3.998-10.484,7.839-21.032,12.073-31.42,1.64-4.024.699-4.815-3.374-4.8-33.568.122-67.136.061-100.704.092-2.117.002-4.25.194-6.349.487-12.333,1.719-21.68,12.199-22.014,24.702-.097,3.64.009,7.286.022,10.93.038,11.82.075,23.639.113,35.459-.058,26.566-.081,53.131-.225,79.697-.016,2.998,1.352,3.468,3.878,3.452,12.145-.079,24.291-.063,36.437-.029,13.847.039,24.939-5.525,33.565-16.263,6.039-7.518,10.552-15.94,14.528-24.652,6.292-13.788,12.874-27.459,17.705-41.866,5.64-11.586,9.88-23.732,14.346-35.788Z"/><path class="j" d="M232.933,231.055c-4.834,14.407-11.415,28.078-17.707,41.866-3.976,8.712-8.489,17.134-14.528,24.652-8.626,10.738-19.718,16.302-33.565,16.263-12.146-.034-24.292-.05-36.437.029-2.527.017-3.894-.454-3.878-3.452.143-26.565.166-53.131.225-79.696,33.946-.014,67.892-.033,101.837-.027,1.351,0,2.702.238,4.054.365Z"/><path class="g" d="M126.929,195.258c-.013-3.643-.119-7.289-.022-10.93.335-12.503,9.682-22.983,22.014-24.702,2.099-.293,4.231-.485,6.349-.487,33.568-.031,67.136.03,100.704-.092,4.073-.015,5.014.777,3.374,4.8-4.234,10.388-8.075,20.936-12.073,31.421-1.963-.084-3.925-.242-5.888-.243-35.281-.015-70.563-.017-105.844,0-2.871.001-5.743.152-8.614.233Z"/><path class="e" d="M126.929,195.258c2.871-.081,5.743-.231,8.614-.233,35.281-.016,70.563-.015,105.844,0,1.963,0,3.925.158,5.888.243-4.465,12.056-8.706,24.202-14.344,35.787-1.35-.127-2.701-.365-4.052-.365-33.946-.006-67.892.013-101.837.027-.038-11.82-.075-23.64-.113-35.46Z"/></g></svg>